<svg id="Layer_1" data-name="Layer 1" xmlns="http://www.w3.org/2000/svg" viewBox="0 0 787.24539 1042.88362"><defs><style>.cls-1{fill:#ff7300;}</style></defs><path class="cls-1" d="M791.75873,443.43667C807.20881,332.71076,724.80817,276.0603,611.50725,234.86L647.55754,85.50873,557.4318,62.33354,521.38152,206.53471c-23.17518-5.15-48.92539-10.30007-72.10057-18.02514L485.33123,41.73338,395.2055,18.55819,359.15521,167.90941c-20.60017-5.15-38.62531-7.72507-56.65045-12.87511h0l-126.176-28.3252-23.1752,97.8508S220.104,240.01,217.529,240.01c36.05029,10.30007,43.77535,33.47528,41.20035,51.50042L158.30354,698.36379c-5.15,10.30007-15.45012,28.32524-41.20033,20.60015,0,2.575-66.95054-15.45014-66.95054-15.45014L6.37731,806.51464l118.451,28.32524c23.17519,5.15006,43.77535,10.30013,64.37552,15.45009l-38.62531,149.3512,90.12573,23.17523L276.7545,873.4652c25.75021,7.725,48.92539,12.8751,72.10059,18.02517l-36.05028,146.77621,90.12573,23.17523,38.62532-149.3512c154.50126,28.32519,270.3772,18.02517,319.30259-121.026,38.62532-113.30091-2.575-177.67644-82.40069-218.87678C735.10824,561.88764,781.45865,523.26233,791.75873,443.43667ZM585.757,731.839C557.4318,845.14,369.45529,783.33946,307.65477,767.88933l48.92539-198.27659C418.38068,585.06282,614.08229,615.9631,585.757,731.839Zm28.32525-290.97735C588.33208,543.86253,431.25578,492.36211,379.75536,479.487l43.77538-180.25147C475.03116,312.11061,639.8325,335.28581,614.08229,440.86169Z" transform="translate(-6.37731 -18.55819)"/></svg>