<?xml version="1.0" encoding="utf-8"?>
<!-- Generator: Adobe Illustrator 27.5.0, SVG Export Plug-In . SVG Version: 6.00 Build 0)  -->
<svg version="1.1" id="Layer_1" xmlns="http://www.w3.org/2000/svg" xmlns:xlink="http://www.w3.org/1999/xlink" x="0px" y="0px"
	 viewBox="0 0 80 71" style="enable-background:new 0 0 80 71;" xml:space="preserve">
<style type="text/css">
	.st0{fill:#E17726;stroke:#E17726;stroke-linecap:round;stroke-linejoin:round;}
	.st1{fill:#E27625;stroke:#E27625;stroke-linecap:round;stroke-linejoin:round;}
	.st2{fill:#D5BFB2;stroke:#D5BFB2;stroke-linecap:round;stroke-linejoin:round;}
	.st3{fill:#233447;stroke:#233447;stroke-linecap:round;stroke-linejoin:round;}
	.st4{fill:#CC6228;stroke:#CC6228;stroke-linecap:round;stroke-linejoin:round;}
	.st5{fill:#E27525;stroke:#E27525;stroke-linecap:round;stroke-linejoin:round;}
	.st6{fill:#F5841F;stroke:#F5841F;stroke-linecap:round;stroke-linejoin:round;}
	.st7{fill:#C0AC9D;stroke:#C0AC9D;stroke-linecap:round;stroke-linejoin:round;}
	.st8{fill:#161616;stroke:#161616;stroke-linecap:round;stroke-linejoin:round;}
	.st9{fill:#763E1A;stroke:#763E1A;stroke-linecap:round;stroke-linejoin:round;}
</style>
<path class="st0" d="M73.8,0.9L44.5,22.5L50,9.8L73.8,0.9z"/>
<path class="st1" d="M6.2,0.9l29.1,21.8L30,9.8L6.2,0.9z"/>
<path class="st1" d="M63.3,50.9l-7.8,11.8l16.7,4.6L77,51.2L63.3,50.9z"/>
<path class="st1" d="M3.1,51.2l4.8,16.2l16.7-4.6l-7.8-11.8L3.1,51.2z"/>
<path class="st1" d="M23.6,30.9l-4.6,7l16.5,0.7L35,21L23.6,30.9z"/>
<path class="st1" d="M56.4,30.9L44.9,20.8l-0.4,17.9L61,37.9L56.4,30.9z"/>
<path class="st1" d="M24.5,62.8l10-4.8l-8.6-6.7L24.5,62.8z"/>
<path class="st1" d="M45.5,58l10,4.8l-1.4-11.5L45.5,58z"/>
<path class="st2" d="M55.5,62.8l-10-4.8l0.8,6.4l-0.1,2.7L55.5,62.8z"/>
<path class="st2" d="M24.5,62.8l9.3,4.4l-0.1-2.7l0.8-6.4L24.5,62.8z"/>
<path class="st3" d="M34,47.1l-8.3-2.4l5.9-2.7L34,47.1z"/>
<path class="st3" d="M46,47.1l2.4-5.1l5.9,2.7L46,47.1z"/>
<path class="st4" d="M24.5,62.8L26,50.9l-9.2,0.3L24.5,62.8z"/>
<path class="st4" d="M54,50.9l1.4,11.8l7.8-11.6L54,50.9z"/>
<path class="st4" d="M61,37.9l-16.5,0.7l1.5,8.4l2.4-5.1l5.9,2.7L61,37.9z"/>
<path class="st4" d="M25.7,44.6l5.9-2.7l2.4,5.1l1.5-8.4L19,37.9L25.7,44.6z"/>
<path class="st5" d="M19,37.9l6.9,13.4l-0.2-6.7L19,37.9z"/>
<path class="st5" d="M54.4,44.6l-0.3,6.7L61,37.9L54.4,44.6z"/>
<path class="st5" d="M35.5,38.6L34,47.1l1.9,9.9l0.4-13.1L35.5,38.6z"/>
<path class="st5" d="M44.5,38.6l-0.8,5.2L44.1,57l1.9-9.9L44.5,38.6z"/>
<path class="st6" d="M46,47.1L44.1,57l1.4,1l8.6-6.7l0.3-6.7L46,47.1z"/>
<path class="st6" d="M25.7,44.6l0.2,6.7l8.6,6.7l1.4-1L34,47.1L25.7,44.6z"/>
<path class="st7" d="M46.2,67.2l0.1-2.7l-0.8-0.6H34.5l-0.7,0.6l0.1,2.7l-9.3-4.4l3.3,2.6l6.6,4.5h11.3l6.6-4.5l3.2-2.6L46.2,67.2z"
	/>
<path class="st8" d="M45.5,58l-1.4-1h-8.2l-1.4,1l-0.8,6.4l0.7-0.6h11.1l0.8,0.6L45.5,58z"/>
<path class="st9" d="M75.1,23.9L77.6,12L73.8,0.9L45.5,21.8l10.9,9.1l15.4,4.5l3.4-3.9l-1.5-1.1l2.4-2.1l-1.8-1.4l2.4-1.8L75.1,23.9
	z"/>
<path class="st9" d="M2.4,12l2.5,11.9l-1.6,1.2l2.4,1.8l-1.8,1.4l2.4,2.1l-1.5,1.1l3.4,3.9l15.4-4.5l10.9-9.1L6.2,0.9L2.4,12z"/>
<path class="st6" d="M71.8,35.4l-15.4-4.5l4.6,7l-6.9,13.4l9.2-0.1H77L71.8,35.4z"/>
<path class="st6" d="M23.6,30.9L8.2,35.4L3.1,51.2h13.7l9.2,0.1L19,37.9L23.6,30.9z"/>
<path class="st6" d="M44.5,38.6l1-16.8l4.5-12H30l4.5,12l1,16.8l0.4,5.3l0,13.1h8.2l0-13.1L44.5,38.6z"/>
</svg>
