<?xml version="1.0" encoding="iso-8859-1"?>
<!-- Uploaded to: SVG Repo, www.svgrepo.com, Generator: SVG Repo Mixer Tools -->
<svg fill="#000000" version="1.1" id="Layer_1" xmlns="http://www.w3.org/2000/svg" xmlns:xlink="http://www.w3.org/1999/xlink" 
	 viewBox="0 0 496 496" xml:space="preserve">
<g>
	<g>
		<g>
			<path d="M492.832,89.616C489.928,87.424,424.376,39.128,280,32.712V0h-64v32.712C71.624,39.128,6.072,87.424,3.168,89.616
				L0,92.024v24.288l11.248-5C11.952,111,82.776,80,176,80c12.648,0,24,3.064,24,40v8h16v368h64V128h16v-8c0-36.936,11.352-40,24-40
				c93.032,0,164.048,31,164.76,31.312l11.24,4.984V92.024L492.832,89.616z M232,16h32v16h-32V16z M264,480h-32V128h32V480z M320,64
				c-31.864,0-38.768,24.168-39.832,48H280h-64h-0.168c-1.064-23.832-7.968-48-39.832-48c-45.488,0-85.456,6.952-115.312,14.456
				C98.792,63.856,160.368,48,248,48c86.968,0,148.44,15.744,186.672,30.288C404.872,70.856,365.168,64,320,64z"/>
			<rect x="240" y="56" width="16" height="16"/>
			<rect x="272" y="56" width="16" height="16"/>
			<rect x="208" y="56" width="16" height="16"/>
		</g>
	</g>
</g>
</svg>